<svg width="520" height="162" viewBox="0 0 520 162" fill="none" xmlns="http://www.w3.org/2000/svg">
<path d="M0 79.8694V159.738H14.6063C29.0476 159.738 29.2125 159.738 29.2125 159.279C29.2125 158.981 29.3774 158.82 29.6837 158.82C30.1549 158.82 30.1549 158.66 30.1549 139.542V120.263H33.453C36.5863 120.263 36.7512 120.286 36.7512 120.722C36.7512 121.02 36.9161 121.181 37.2224 121.181C37.5287 121.181 37.6936 121.342 37.6936 121.64C37.6936 121.938 37.8585 122.099 38.1647 122.099C38.471 122.099 38.6359 122.26 38.6359 122.558C38.6359 122.856 38.8008 123.017 39.1071 123.017C39.4133 123.017 39.5783 123.178 39.5783 123.476C39.5783 123.774 39.7432 123.935 40.0494 123.935C40.3557 123.935 40.5206 124.096 40.5206 124.394C40.5206 124.692 40.6855 124.853 40.9918 124.853C41.298 124.853 41.4629 125.014 41.4629 125.312C41.4629 125.61 41.6278 125.771 41.9341 125.771C42.2404 125.771 42.4053 125.932 42.4053 126.23C42.4053 126.528 42.5702 126.689 42.8764 126.689C43.1827 126.689 43.3476 126.85 43.3476 127.148C43.3476 127.446 43.5125 127.607 43.8188 127.607C44.125 127.607 44.29 127.768 44.29 128.066C44.29 128.365 44.4549 128.525 44.7611 128.525C45.1616 128.525 45.2323 128.686 45.2323 129.443C45.2323 130.201 45.303 130.361 45.7035 130.361C46.0097 130.361 46.1746 130.522 46.1746 130.82C46.1746 131.119 46.3395 131.279 46.6458 131.279C46.9521 131.279 47.117 131.44 47.117 131.738C47.117 132.037 47.2819 132.197 47.5881 132.197C47.8944 132.197 48.0593 132.358 48.0593 132.656C48.0593 132.955 48.2242 133.115 48.5305 133.115C48.8367 133.115 49.0016 133.276 49.0016 133.574C49.0016 133.873 49.1666 134.033 49.4728 134.033C49.7791 134.033 49.944 134.194 49.944 134.492C49.944 134.791 50.1089 134.951 50.4152 134.951C50.7214 134.951 50.8863 135.112 50.8863 135.41C50.8863 135.709 51.0512 135.869 51.3575 135.869C51.6638 135.869 51.8287 136.03 51.8287 136.328C51.8287 136.627 51.9936 136.787 52.2998 136.787C52.6061 136.787 52.771 136.948 52.771 137.246C52.771 137.545 52.9359 137.705 53.2422 137.705C53.5484 137.705 53.7133 137.866 53.7133 138.165C53.7133 138.463 53.8783 138.624 54.1845 138.624C54.4908 138.624 54.6557 138.784 54.6557 139.083C54.6557 139.381 54.8206 139.542 55.1269 139.542C55.4331 139.542 55.598 139.702 55.598 140.001C55.598 140.299 55.7629 140.46 56.0692 140.46C56.3755 140.46 56.5404 140.62 56.5404 140.919C56.5404 141.217 56.7053 141.378 57.0115 141.378C57.3178 141.378 57.4827 141.538 57.4827 141.837C57.4827 142.135 57.6476 142.296 57.9539 142.296C58.3544 142.296 58.425 142.456 58.425 143.214C58.425 143.971 58.4957 144.132 58.8962 144.132C59.2025 144.132 59.3674 144.292 59.3674 144.591C59.3674 144.889 59.5323 145.05 59.8386 145.05C60.1448 145.05 60.3097 145.21 60.3097 145.509C60.3097 145.807 60.4746 145.968 60.7809 145.968C61.0872 145.968 61.2521 146.128 61.2521 146.427C61.2521 146.725 61.417 146.886 61.7232 146.886C62.0295 146.886 62.1944 147.046 62.1944 147.345C62.1944 147.643 62.3593 147.804 62.6656 147.804C62.9718 147.804 63.1367 147.965 63.1367 148.263C63.1367 148.561 63.3016 148.722 63.6079 148.722C63.9142 148.722 64.0791 148.883 64.0791 149.181C64.0791 149.479 64.244 149.64 64.5502 149.64C64.8565 149.64 65.0214 149.801 65.0214 150.099C65.0214 150.397 65.1863 150.558 65.4926 150.558C65.7988 150.558 65.9638 150.719 65.9638 151.017C65.9638 151.315 66.1287 151.476 66.4349 151.476C66.7412 151.476 66.9061 151.637 66.9061 151.935C66.9061 152.233 67.071 152.394 67.3773 152.394C67.6835 152.394 67.8484 152.555 67.8484 152.853C67.8484 153.151 68.0133 153.312 68.3196 153.312C68.6259 153.312 68.7908 153.473 68.7908 153.771C68.7908 154.069 68.9557 154.23 69.2619 154.23C69.5682 154.23 69.7331 154.391 69.7331 154.689C69.7331 154.987 69.898 155.148 70.2043 155.148C70.5105 155.148 70.6755 155.309 70.6755 155.607C70.6755 155.905 70.8404 156.066 71.1466 156.066C71.5471 156.066 71.6178 156.227 71.6178 156.984C71.6178 157.742 71.6885 157.902 72.089 157.902C72.3952 157.902 72.5601 158.063 72.5601 158.361C72.5601 158.751 72.725 158.82 73.5025 158.82C74.2799 158.82 74.4448 158.889 74.4448 159.279C74.4448 159.738 74.6097 159.738 91.8781 159.738H109.311V158.82C109.311 158.063 109.241 157.902 108.84 157.902C108.534 157.902 108.369 157.742 108.369 157.443C108.369 157.145 108.204 156.984 107.898 156.984C107.592 156.984 107.427 156.824 107.427 156.525C107.427 156.227 107.262 156.066 106.956 156.066C106.649 156.066 106.484 155.905 106.484 155.607C106.484 155.309 106.319 155.148 106.013 155.148C105.707 155.148 105.542 154.987 105.542 154.689C105.542 154.391 105.377 154.23 105.071 154.23C104.765 154.23 104.6 154.069 104.6 153.771C104.6 153.473 104.435 153.312 104.129 153.312C103.822 153.312 103.657 153.151 103.657 152.853C103.657 152.555 103.492 152.394 103.186 152.394C102.88 152.394 102.715 152.233 102.715 151.935C102.715 151.637 102.55 151.476 102.244 151.476C101.938 151.476 101.773 151.315 101.773 151.017C101.773 150.719 101.608 150.558 101.301 150.558C100.995 150.558 100.83 150.397 100.83 150.099C100.83 149.801 100.665 149.64 100.359 149.64C99.9586 149.64 99.888 149.479 99.888 148.722C99.888 147.965 99.8173 147.804 99.4168 147.804C99.1105 147.804 98.9456 147.643 98.9456 147.345C98.9456 147.046 98.7807 146.886 98.4745 146.886C98.1682 146.886 98.0033 146.725 98.0033 146.427C98.0033 146.128 97.8384 145.968 97.5321 145.968C97.2259 145.968 97.061 145.807 97.061 145.509C97.061 145.21 96.896 145.05 96.5898 145.05C96.2835 145.05 96.1186 144.889 96.1186 144.591C96.1186 144.292 95.9537 144.132 95.6474 144.132C95.3412 144.132 95.1763 143.971 95.1763 143.673C95.1763 143.374 95.0114 143.214 94.7051 143.214C94.3988 143.214 94.2339 143.053 94.2339 142.755C94.2339 142.456 94.069 142.296 93.7628 142.296C93.4565 142.296 93.2916 142.135 93.2916 141.837C93.2916 141.538 93.1267 141.378 92.8204 141.378C92.5142 141.378 92.3493 141.217 92.3493 140.919C92.3493 140.62 92.1843 140.46 91.8781 140.46C91.5718 140.46 91.4069 140.299 91.4069 140.001C91.4069 139.702 91.242 139.542 90.9357 139.542C90.6295 139.542 90.4646 139.381 90.4646 139.083C90.4646 138.784 90.2997 138.624 89.9934 138.624C89.6872 138.624 89.5222 138.463 89.5222 138.165C89.5222 137.866 89.3573 137.705 89.0511 137.705C88.7448 137.705 88.5799 137.545 88.5799 137.246C88.5799 136.948 88.415 136.787 88.1087 136.787C87.8025 136.787 87.6376 136.627 87.6376 136.328C87.6376 136.03 87.4727 135.869 87.1664 135.869C86.8601 135.869 86.6952 135.709 86.6952 135.41C86.6952 135.112 86.5303 134.951 86.2241 134.951C85.8236 134.951 85.7529 134.791 85.7529 134.033C85.7529 133.276 85.6822 133.115 85.2817 133.115C84.9755 133.115 84.8105 132.955 84.8105 132.656C84.8105 132.358 84.6456 132.197 84.3394 132.197C84.0331 132.197 83.8682 132.037 83.8682 131.738C83.8682 131.44 83.7033 131.279 83.397 131.279C83.0908 131.279 82.9259 131.119 82.9259 130.82C82.9259 130.522 82.761 130.361 82.4547 130.361C82.1484 130.361 81.9835 130.201 81.9835 129.902C81.9835 129.604 81.8186 129.443 81.5124 129.443C81.2061 129.443 81.0412 129.283 81.0412 128.984C81.0412 128.686 80.8763 128.525 80.57 128.525C80.2638 128.525 80.0988 128.365 80.0988 128.066C80.0988 127.768 79.9339 127.607 79.6277 127.607C79.3214 127.607 79.1565 127.446 79.1565 127.148C79.1565 126.85 78.9916 126.689 78.6853 126.689C78.3791 126.689 78.2142 126.528 78.2142 126.23C78.2142 125.932 78.0493 125.771 77.743 125.771C77.4367 125.771 77.2718 125.61 77.2718 125.312C77.2718 125.014 77.1069 124.853 76.8007 124.853C76.4944 124.853 76.3295 124.692 76.3295 124.394C76.3295 124.096 76.1646 123.935 75.8583 123.935C75.5521 123.935 75.3872 123.774 75.3872 123.476C75.3872 123.178 75.2222 123.017 74.916 123.017C74.6097 123.017 74.4448 122.856 74.4448 122.558C74.4448 122.26 74.2799 122.099 73.9736 122.099C73.6674 122.099 73.5025 121.938 73.5025 121.64C73.5025 121.342 73.3376 121.181 73.0313 121.181C72.725 121.181 72.5601 121.02 72.5601 120.722C72.5601 120.424 72.3952 120.263 72.089 120.263C71.6885 120.263 71.6178 120.102 71.6178 119.345C71.6178 118.587 71.5471 118.427 71.1466 118.427C70.8404 118.427 70.6755 118.266 70.6755 117.968C70.6755 117.669 70.5105 117.509 70.2043 117.509C69.898 117.509 69.7331 117.348 69.7331 117.05C69.7331 116.751 69.5682 116.591 69.2619 116.591C68.9557 116.591 68.7908 116.43 68.7908 116.132C68.7908 115.833 68.6259 115.673 68.3196 115.673C68.0133 115.673 67.8484 115.512 67.8484 115.214C67.8484 114.915 67.6835 114.755 67.3773 114.755C67.071 114.755 66.9061 114.594 66.9061 114.296C66.9061 113.997 66.7412 113.837 66.4349 113.837C66.1287 113.837 65.9638 113.676 65.9638 113.378C65.9638 113.079 65.7988 112.919 65.4926 112.919C65.1863 112.919 65.0214 112.758 65.0214 112.46C65.0214 112.161 64.8565 112.001 64.5502 112.001C64.244 112.001 64.0791 111.84 64.0791 111.542C64.0791 111.243 63.9142 111.083 63.6079 111.083C63.3016 111.083 63.1367 110.922 63.1367 110.624C63.1367 110.325 62.9718 110.165 62.6656 110.165C62.3593 110.165 62.1944 110.004 62.1944 109.705C62.1944 109.407 62.0295 109.246 61.7232 109.246C61.417 109.246 61.2521 109.086 61.2521 108.787C61.2521 108.489 61.0872 108.328 60.7809 108.328C60.4746 108.328 60.3097 108.168 60.3097 107.869C60.3097 107.571 60.1448 107.41 59.8386 107.41C59.4381 107.41 59.3674 107.25 59.3674 106.492C59.3674 105.735 59.4381 105.574 59.8386 105.574C60.1448 105.574 60.3097 105.414 60.3097 105.115C60.3097 104.817 60.4746 104.656 60.7809 104.656C61.0872 104.656 61.2521 104.496 61.2521 104.197C61.2521 103.899 61.417 103.738 61.7232 103.738C62.0295 103.738 62.1944 103.578 62.1944 103.279C62.1944 102.981 62.3593 102.82 62.6656 102.82C63.0661 102.82 63.1367 102.66 63.1367 101.902C63.1367 101.145 63.2074 100.984 63.6079 100.984C63.9142 100.984 64.0791 100.824 64.0791 100.525C64.0791 100.227 64.244 100.066 64.5502 100.066C64.8565 100.066 65.0214 99.9055 65.0214 99.6071C65.0214 99.3088 65.1863 99.1481 65.4926 99.1481C65.7988 99.1481 65.9638 98.9875 65.9638 98.6891C65.9638 98.3907 66.1287 98.2301 66.4349 98.2301C66.7412 98.2301 66.9061 98.0694 66.9061 97.7711C66.9061 97.4727 67.071 97.3121 67.3773 97.3121C67.6835 97.3121 67.8484 97.1514 67.8484 96.853C67.8484 96.5547 68.0133 96.394 68.3196 96.394C68.6259 96.394 68.7908 96.2334 68.7908 95.935C68.7908 95.6366 68.9557 95.476 69.2619 95.476C69.5682 95.476 69.7331 95.3153 69.7331 95.017C69.7331 94.7186 69.898 94.558 70.2043 94.558C70.5105 94.558 70.6755 94.3973 70.6755 94.0989C70.6755 93.8006 70.8404 93.6399 71.1466 93.6399C71.4529 93.6399 71.6178 93.4793 71.6178 93.1809C71.6178 92.8825 71.7827 92.7219 72.089 92.7219C72.3952 92.7219 72.5601 92.5612 72.5601 92.2629C72.5601 91.9645 72.725 91.8039 73.0313 91.8039C73.3376 91.8039 73.5025 91.6432 73.5025 91.3448C73.5025 91.0465 73.6674 90.8858 73.9736 90.8858C74.2799 90.8858 74.4448 90.7252 74.4448 90.4268C74.4448 90.1284 74.6097 89.9678 74.916 89.9678C75.2222 89.9678 75.3872 89.8071 75.3872 89.5088C75.3872 89.2104 75.5521 89.0498 75.8583 89.0498C76.1646 89.0498 76.3295 88.8891 76.3295 88.5907C76.3295 88.2924 76.4944 88.1317 76.8007 88.1317C77.2012 88.1317 77.2718 87.9711 77.2718 87.2137C77.2718 86.4563 77.3425 86.2957 77.743 86.2957C78.0493 86.2957 78.2142 86.135 78.2142 85.8366C78.2142 85.5383 78.3791 85.3776 78.6853 85.3776C78.9916 85.3776 79.1565 85.217 79.1565 84.9186C79.1565 84.6203 79.3214 84.4596 79.6277 84.4596C79.9339 84.4596 80.0988 84.2989 80.0988 84.0006C80.0988 83.7022 80.2638 83.5416 80.57 83.5416C80.8763 83.5416 81.0412 83.3809 81.0412 83.0825C81.0412 82.7842 81.2061 82.6235 81.5124 82.6235C81.8186 82.6235 81.9835 82.4629 81.9835 82.1645C81.9835 81.8662 82.1484 81.7055 82.4547 81.7055C82.761 81.7055 82.9259 81.5448 82.9259 81.2465C82.9259 80.9481 83.0908 80.7875 83.397 80.7875C83.7033 80.7875 83.8682 80.6268 83.8682 80.3284C83.8682 80.0301 84.0331 79.8694 84.3394 79.8694C84.6456 79.8694 84.8105 79.7088 84.8105 79.4104C84.8105 79.1121 84.9755 78.9514 85.2817 78.9514C85.588 78.9514 85.7529 78.7907 85.7529 78.4924C85.7529 78.194 85.9178 78.0334 86.2241 78.0334C86.5303 78.0334 86.6952 77.8727 86.6952 77.5744C86.6952 77.276 86.8601 77.1153 87.1664 77.1153C87.4727 77.1153 87.6376 76.9547 87.6376 76.6563C87.6376 76.358 87.8025 76.1973 88.1087 76.1973C88.415 76.1973 88.5799 76.0366 88.5799 75.7383C88.5799 75.4399 88.7448 75.2793 89.0511 75.2793C89.3573 75.2793 89.5222 75.1186 89.5222 74.8203C89.5222 74.5219 89.6872 74.3612 89.9934 74.3612C90.2997 74.3612 90.4646 74.2006 90.4646 73.9022C90.4646 73.6039 90.6295 73.4432 90.9357 73.4432C91.3362 73.4432 91.4069 73.2825 91.4069 72.5252C91.4069 71.7678 91.4776 71.6071 91.8781 71.6071C92.1843 71.6071 92.3493 71.4465 92.3493 71.1481C92.3493 70.8498 92.5142 70.6891 92.8204 70.6891C93.1267 70.6891 93.2916 70.5284 93.2916 70.2301C93.2916 69.9317 93.4565 69.7711 93.7628 69.7711C94.069 69.7711 94.2339 69.6104 94.2339 69.3121C94.2339 69.0137 94.3988 68.853 94.7051 68.853C95.0114 68.853 95.1763 68.6924 95.1763 68.394C95.1763 68.0957 95.3412 67.935 95.6474 67.935C95.9537 67.935 96.1186 67.7744 96.1186 67.476C96.1186 67.1776 96.2835 67.017 96.5898 67.017C96.896 67.017 97.061 66.8563 97.061 66.558C97.061 66.2596 97.2259 66.0989 97.5321 66.0989C97.8384 66.0989 98.0033 65.9383 98.0033 65.6399C98.0033 65.3416 98.1682 65.1809 98.4745 65.1809C98.7807 65.1809 98.9456 65.0203 98.9456 64.7219C98.9456 64.4235 99.1105 64.2629 99.4168 64.2629C99.7231 64.2629 99.888 64.1022 99.888 63.8039C99.888 63.5055 100.053 63.3448 100.359 63.3448C100.665 63.3448 100.83 63.1842 100.83 62.8858C100.83 62.5875 100.995 62.4268 101.301 62.4268C101.608 62.4268 101.773 62.2662 101.773 61.9678C101.773 61.6694 101.938 61.5088 102.244 61.5088C102.55 61.5088 102.715 61.3481 102.715 61.0498C102.715 60.7514 102.88 60.5907 103.186 60.5907C103.492 60.5907 103.657 60.4301 103.657 60.1317C103.657 59.8334 103.822 59.6727 104.129 59.6727C104.435 59.6727 104.6 59.5121 104.6 59.2137C104.6 58.9153 104.765 58.7547 105.071 58.7547C105.471 58.7547 105.542 58.594 105.542 57.8366C105.542 57.0793 105.613 56.9186 106.013 56.9186C106.319 56.9186 106.484 56.758 106.484 56.4596C106.484 56.1612 106.649 56.0006 106.956 56.0006C107.262 56.0006 107.427 55.8399 107.427 55.5416C107.427 55.2432 107.592 55.0825 107.898 55.0825C108.204 55.0825 108.369 54.9219 108.369 54.6235C108.369 54.3252 108.534 54.1645 108.84 54.1645C109.146 54.1645 109.311 54.0039 109.311 53.7055C109.311 53.2465 109.146 53.2465 91.4069 53.2465C73.6674 53.2465 73.5025 53.2465 73.5025 53.7055C73.5025 54.0039 73.3376 54.1645 73.0313 54.1645C72.725 54.1645 72.5601 54.3252 72.5601 54.6235C72.5601 54.9219 72.3952 55.0825 72.089 55.0825C71.7827 55.0825 71.6178 55.2432 71.6178 55.5416C71.6178 55.8399 71.4529 56.0006 71.1466 56.0006C70.8404 56.0006 70.6755 56.1612 70.6755 56.4596C70.6755 56.758 70.5105 56.9186 70.2043 56.9186C69.898 56.9186 69.7331 57.0793 69.7331 57.3776C69.7331 57.676 69.5682 57.8366 69.2619 57.8366C68.9557 57.8366 68.7908 57.9973 68.7908 58.2957C68.7908 58.594 68.6259 58.7547 68.3196 58.7547C68.0133 58.7547 67.8484 58.9153 67.8484 59.2137C67.8484 59.5121 67.6835 59.6727 67.3773 59.6727C67.071 59.6727 66.9061 59.8334 66.9061 60.1317C66.9061 60.4301 66.7412 60.5907 66.4349 60.5907C66.1287 60.5907 65.9638 60.7514 65.9638 61.0498C65.9638 61.3481 65.7988 61.5088 65.4926 61.5088C65.1863 61.5088 65.0214 61.6694 65.0214 61.9678C65.0214 62.2662 64.8565 62.4268 64.5502 62.4268C64.1498 62.4268 64.0791 62.5875 64.0791 63.3448C64.0791 64.1022 64.0084 64.2629 63.6079 64.2629C63.3016 64.2629 63.1367 64.4235 63.1367 64.7219C63.1367 65.0203 62.9718 65.1809 62.6656 65.1809C62.3593 65.1809 62.1944 65.3416 62.1944 65.6399C62.1944 65.9383 62.0295 66.0989 61.7232 66.0989C61.417 66.0989 61.2521 66.2596 61.2521 66.558C61.2521 66.8563 61.0872 67.017 60.7809 67.017C60.4746 67.017 60.3097 67.1776 60.3097 67.476C60.3097 67.7744 60.1448 67.935 59.8386 67.935C59.5323 67.935 59.3674 68.0957 59.3674 68.394C59.3674 68.6924 59.2025 68.853 58.8962 68.853C58.59 68.853 58.425 69.0137 58.425 69.3121C58.425 69.6104 58.2601 69.7711 57.9539 69.7711C57.6476 69.7711 57.4827 69.9317 57.4827 70.2301C57.4827 70.5284 57.3178 70.6891 57.0115 70.6891C56.7053 70.6891 56.5404 70.8498 56.5404 71.1481C56.5404 71.4465 56.3755 71.6071 56.0692 71.6071C55.7629 71.6071 55.598 71.7678 55.598 72.0662C55.598 72.3645 55.4331 72.5252 55.1269 72.5252C54.8206 72.5252 54.6557 72.6858 54.6557 72.9842C54.6557 73.2825 54.4908 73.4432 54.1845 73.4432C53.8783 73.4432 53.7133 73.6039 53.7133 73.9022C53.7133 74.2006 53.5484 74.3612 53.2422 74.3612C52.9359 74.3612 52.771 74.5219 52.771 74.8203C52.771 75.1186 52.6061 75.2793 52.2998 75.2793C51.9936 75.2793 51.8287 75.4399 51.8287 75.7383C51.8287 76.0366 51.6638 76.1973 51.3575 76.1973C50.957 76.1973 50.8863 76.358 50.8863 77.1153C50.8863 77.8727 50.8157 78.0334 50.4152 78.0334C50.1089 78.0334 49.944 78.194 49.944 78.4924C49.944 78.7907 49.7791 78.9514 49.4728 78.9514C49.1666 78.9514 49.0016 79.1121 49.0016 79.4104C49.0016 79.7088 48.8367 79.8694 48.5305 79.8694C48.2242 79.8694 48.0593 80.0301 48.0593 80.3284C48.0593 80.6268 47.8944 80.7875 47.5881 80.7875C47.2819 80.7875 47.117 80.9481 47.117 81.2465C47.117 81.5448 46.9521 81.7055 46.6458 81.7055C46.3395 81.7055 46.1746 81.8662 46.1746 82.1645C46.1746 82.4629 46.0097 82.6235 45.7035 82.6235C45.3972 82.6235 45.2323 82.7842 45.2323 83.0825C45.2323 83.3809 45.0674 83.5416 44.7611 83.5416C44.4549 83.5416 44.29 83.7022 44.29 84.0006C44.29 84.2989 44.125 84.4596 43.8188 84.4596C43.5125 84.4596 43.3476 84.6203 43.3476 84.9186C43.3476 85.217 43.1827 85.3776 42.8764 85.3776C42.5702 85.3776 42.4053 85.5383 42.4053 85.8366C42.4053 86.135 42.2404 86.2957 41.9341 86.2957C41.6278 86.2957 41.4629 86.4563 41.4629 86.7547C41.4629 87.053 41.298 87.2137 40.9918 87.2137C40.6855 87.2137 40.5206 87.3743 40.5206 87.6727C40.5206 87.9711 40.3557 88.1317 40.0494 88.1317C39.7432 88.1317 39.5783 88.2924 39.5783 88.5907C39.5783 88.8891 39.4133 89.0498 39.1071 89.0498C38.8008 89.0498 38.6359 89.2104 38.6359 89.5088C38.6359 89.8071 38.471 89.9678 38.1647 89.9678C37.8585 89.9678 37.6936 90.1284 37.6936 90.4268C37.6936 90.7252 37.5287 90.8858 37.2224 90.8858C36.9161 90.8858 36.7512 91.0465 36.7512 91.3448C36.7512 91.6432 36.5863 91.8039 36.2801 91.8039C35.9738 91.8039 35.8089 91.9645 35.8089 92.2629C35.8089 92.6989 35.644 92.7219 32.9819 92.7219H30.1549V46.3612V0.000582665H15.0774H0V79.8694Z" fill="white"/>
<path d="M206.372 0.459458C206.372 0.872573 206.207 0.918474 204.487 0.918474C202.768 0.918474 202.603 0.964376 202.603 1.37749C202.603 1.79061 202.438 1.83651 201.189 1.83651C199.941 1.83651 199.776 1.88241 199.776 2.29552C199.776 2.70864 199.611 2.75454 198.362 2.75454C197.114 2.75454 196.949 2.80044 196.949 3.21356C196.949 3.60372 196.784 3.67257 196.006 3.67257C195.229 3.67257 195.064 3.74143 195.064 4.13159C195.064 4.52175 194.899 4.59061 194.122 4.59061C193.344 4.59061 193.179 4.65946 193.179 5.04962C193.179 5.43979 193.014 5.50864 192.237 5.50864C191.46 5.50864 191.295 5.57749 191.295 5.96765C191.295 6.26602 191.13 6.42667 190.823 6.42667C190.517 6.42667 190.352 6.58733 190.352 6.88569C190.352 7.27585 190.187 7.3447 189.41 7.3447C188.633 7.3447 188.468 7.41356 188.468 7.80372C188.468 8.10208 188.303 8.26274 187.996 8.26274C187.69 8.26274 187.525 8.42339 187.525 8.72175C187.525 9.02011 187.36 9.18077 187.054 9.18077C186.748 9.18077 186.583 9.34143 186.583 9.63979C186.583 9.93815 186.418 10.0988 186.112 10.0988C185.805 10.0988 185.641 10.2595 185.641 10.5578C185.641 10.8562 185.476 11.0168 185.169 11.0168C184.863 11.0168 184.698 11.1775 184.698 11.4759C184.698 11.7742 184.533 11.9349 184.227 11.9349C183.921 11.9349 183.756 12.0955 183.756 12.3939C183.756 12.6922 183.591 12.8529 183.285 12.8529C182.978 12.8529 182.814 13.0136 182.814 13.3119C182.814 13.6103 182.649 13.7709 182.342 13.7709C182.036 13.7709 181.871 13.9316 181.871 14.23C181.871 14.5283 181.706 14.689 181.4 14.689C181.094 14.689 180.929 14.8496 180.929 15.148C180.929 15.4463 180.764 15.607 180.458 15.607C180.151 15.607 179.987 15.7677 179.987 16.066C179.987 16.3644 179.822 16.525 179.515 16.525C179.115 16.525 179.044 16.6857 179.044 17.4431C179.044 18.2004 178.974 18.3611 178.573 18.3611C178.267 18.3611 178.102 18.5218 178.102 18.8201C178.102 19.1185 177.937 19.2791 177.631 19.2791C177.23 19.2791 177.16 19.4398 177.16 20.1972C177.16 20.9545 177.089 21.1152 176.688 21.1152C176.288 21.1152 176.217 21.2759 176.217 22.0332C176.217 22.7906 176.147 22.9513 175.746 22.9513C175.346 22.9513 175.275 23.1119 175.275 23.8693C175.275 24.6267 175.204 24.7873 174.804 24.7873C174.38 24.7873 174.333 24.948 174.333 26.1644C174.333 27.3808 174.285 27.5414 173.861 27.5414C173.437 27.5414 173.39 27.7021 173.39 28.9185C173.39 30.1349 173.343 30.2955 172.919 30.2955C172.471 30.2955 172.448 30.4562 172.448 33.0496C172.448 35.6431 172.424 35.8037 171.977 35.8037C171.529 35.8037 171.505 35.9644 171.505 39.9349C171.505 43.9054 171.529 44.066 171.977 44.066C172.424 44.066 172.448 44.2267 172.448 46.8201C172.448 49.4136 172.471 49.5742 172.919 49.5742C173.343 49.5742 173.39 49.7349 173.39 51.4103C173.39 53.0857 173.437 53.2463 173.861 53.2463C174.262 53.2463 174.333 53.407 174.333 54.1644C174.333 54.9218 174.403 55.0824 174.804 55.0824C175.204 55.0824 175.275 55.2431 175.275 56.0004V56.9185H174.333C173.555 56.9185 173.39 56.9873 173.39 57.3775C173.39 57.7677 173.225 57.8365 172.448 57.8365C171.67 57.8365 171.505 57.9054 171.505 58.2955C171.505 58.6857 171.341 58.7545 170.563 58.7545C169.786 58.7545 169.621 58.8234 169.621 59.2136C169.621 59.6037 169.456 59.6726 168.678 59.6726C167.901 59.6726 167.736 59.7414 167.736 60.1316C167.736 60.43 167.571 60.5906 167.265 60.5906C166.959 60.5906 166.794 60.7513 166.794 61.0496C166.794 61.4398 166.629 61.5086 165.851 61.5086C165.074 61.5086 164.909 61.5775 164.909 61.9677C164.909 62.266 164.744 62.4267 164.438 62.4267C164.132 62.4267 163.967 62.5873 163.967 62.8857C163.967 63.1841 163.802 63.3447 163.496 63.3447C163.189 63.3447 163.024 63.5054 163.024 63.8037C163.024 64.1939 162.86 64.2627 162.082 64.2627C161.305 64.2627 161.14 64.3316 161.14 64.7218C161.14 65.0201 160.975 65.1808 160.669 65.1808C160.362 65.1808 160.197 65.3414 160.197 65.6398C160.197 65.9381 160.033 66.0988 159.726 66.0988C159.42 66.0988 159.255 66.2595 159.255 66.5578C159.255 66.8562 159.09 67.0168 158.784 67.0168C158.478 67.0168 158.313 67.1775 158.313 67.4759C158.313 67.7742 158.148 67.9349 157.842 67.9349C157.535 67.9349 157.37 68.0955 157.37 68.3939C157.37 68.6922 157.205 68.8529 156.899 68.8529C156.593 68.8529 156.428 69.0136 156.428 69.3119C156.428 69.6103 156.263 69.7709 155.957 69.7709C155.556 69.7709 155.486 69.9316 155.486 70.689C155.486 71.4463 155.415 71.607 155.015 71.607C154.708 71.607 154.543 71.7677 154.543 72.066C154.543 72.3644 154.378 72.525 154.072 72.525C153.766 72.525 153.601 72.6857 153.601 72.9841C153.601 73.2824 153.436 73.4431 153.13 73.4431C152.729 73.4431 152.659 73.6037 152.659 74.3611C152.659 75.1185 152.588 75.2791 152.188 75.2791C151.881 75.2791 151.716 75.4398 151.716 75.7381C151.716 76.0365 151.551 76.1972 151.245 76.1972C150.845 76.1972 150.774 76.3578 150.774 77.1152C150.774 77.8726 150.703 78.0332 150.303 78.0332C149.902 78.0332 149.832 78.1939 149.832 78.9513C149.832 79.7086 149.761 79.8693 149.361 79.8693C148.96 79.8693 148.889 80.03 148.889 80.7873C148.889 81.5447 148.819 81.7054 148.418 81.7054C148.018 81.7054 147.947 81.866 147.947 82.6234C147.947 83.3808 147.876 83.5414 147.476 83.5414C147.075 83.5414 147.005 83.7021 147.005 84.4595C147.005 85.2168 146.934 85.3775 146.533 85.3775C146.109 85.3775 146.062 85.5382 146.062 86.7545C146.062 87.9709 146.015 88.1316 145.591 88.1316C145.167 88.1316 145.12 88.2922 145.12 89.9677C145.12 91.6431 145.073 91.8037 144.649 91.8037C144.225 91.8037 144.178 91.9644 144.178 93.6398C144.178 95.3152 144.131 95.4759 143.706 95.4759C143.259 95.4759 143.235 95.6365 143.235 98.689C143.235 101.741 143.212 101.902 142.764 101.902C142.317 101.902 142.293 102.063 142.293 107.41C142.293 112.758 142.317 112.918 142.764 112.918C143.212 112.918 143.235 113.079 143.235 116.132C143.235 119.184 143.259 119.345 143.706 119.345C144.131 119.345 144.178 119.505 144.178 121.181C144.178 122.856 144.225 123.017 144.649 123.017C145.073 123.017 145.12 123.177 145.12 124.394C145.12 125.61 145.167 125.771 145.591 125.771C146.015 125.771 146.062 125.932 146.062 127.148C146.062 128.364 146.109 128.525 146.533 128.525C146.958 128.525 147.005 128.686 147.005 129.902C147.005 131.118 147.052 131.279 147.476 131.279C147.876 131.279 147.947 131.44 147.947 132.197C147.947 132.955 148.018 133.115 148.418 133.115C148.819 133.115 148.889 133.276 148.889 134.033C148.889 134.791 148.96 134.951 149.361 134.951C149.761 134.951 149.832 135.112 149.832 135.869C149.832 136.627 149.902 136.787 150.303 136.787C150.609 136.787 150.774 136.948 150.774 137.246C150.774 137.545 150.939 137.705 151.245 137.705C151.646 137.705 151.716 137.866 151.716 138.623C151.716 139.381 151.787 139.541 152.188 139.541C152.494 139.541 152.659 139.702 152.659 140C152.659 140.299 152.824 140.459 153.13 140.459C153.53 140.459 153.601 140.62 153.601 141.377C153.601 142.135 153.672 142.296 154.072 142.296C154.378 142.296 154.543 142.456 154.543 142.755C154.543 143.053 154.708 143.214 155.015 143.214C155.321 143.214 155.486 143.374 155.486 143.673C155.486 143.971 155.651 144.132 155.957 144.132C156.357 144.132 156.428 144.292 156.428 145.05C156.428 145.807 156.499 145.968 156.899 145.968C157.205 145.968 157.37 146.128 157.37 146.427C157.37 146.725 157.535 146.886 157.842 146.886C158.148 146.886 158.313 147.046 158.313 147.345C158.313 147.643 158.478 147.804 158.784 147.804C159.09 147.804 159.255 147.964 159.255 148.263C159.255 148.561 159.42 148.722 159.726 148.722C160.033 148.722 160.197 148.882 160.197 149.181C160.197 149.571 160.362 149.64 161.14 149.64C161.917 149.64 162.082 149.709 162.082 150.099C162.082 150.397 162.247 150.558 162.553 150.558C162.86 150.558 163.024 150.718 163.024 151.017C163.024 151.315 163.189 151.476 163.496 151.476C163.802 151.476 163.967 151.637 163.967 151.935C163.967 152.325 164.132 152.394 164.909 152.394C165.687 152.394 165.851 152.463 165.851 152.853C165.851 153.151 166.016 153.312 166.323 153.312C166.629 153.312 166.794 153.473 166.794 153.771C166.794 154.161 166.959 154.23 167.736 154.23C168.514 154.23 168.678 154.299 168.678 154.689C168.678 154.987 168.843 155.148 169.15 155.148C169.456 155.148 169.621 155.309 169.621 155.607C169.621 155.997 169.786 156.066 170.563 156.066C171.341 156.066 171.505 156.135 171.505 156.525C171.505 156.938 171.67 156.984 172.919 156.984C174.168 156.984 174.333 157.03 174.333 157.443C174.333 157.833 174.497 157.902 175.275 157.902C176.052 157.902 176.217 157.971 176.217 158.361C176.217 158.774 176.382 158.82 177.631 158.82C178.879 158.82 179.044 158.866 179.044 159.279C179.044 159.692 179.209 159.738 180.929 159.738C182.649 159.738 182.814 159.784 182.814 160.197C182.814 160.633 182.978 160.656 185.169 160.656C187.36 160.656 187.525 160.679 187.525 161.115C187.525 161.574 187.69 161.574 194.593 161.574C201.495 161.574 201.66 161.574 201.66 161.115C201.66 160.679 201.825 160.656 204.487 160.656C207.149 160.656 207.314 160.633 207.314 160.197C207.314 159.784 207.479 159.738 208.728 159.738C209.976 159.738 210.141 159.692 210.141 159.279C210.141 158.866 210.306 158.82 211.555 158.82C212.804 158.82 212.968 158.774 212.968 158.361C212.968 157.971 213.133 157.902 213.911 157.902C214.688 157.902 214.853 157.833 214.853 157.443C214.853 157.053 215.018 156.984 215.795 156.984C216.573 156.984 216.738 156.915 216.738 156.525C216.738 156.135 216.903 156.066 217.68 156.066C218.458 156.066 218.622 155.997 218.622 155.607C218.622 155.217 218.787 155.148 219.565 155.148C220.342 155.148 220.507 155.079 220.507 154.689C220.507 154.391 220.672 154.23 220.978 154.23C221.285 154.23 221.449 154.069 221.449 153.771C221.449 153.381 221.614 153.312 222.392 153.312C223.169 153.312 223.334 153.243 223.334 152.853C223.334 152.555 223.499 152.394 223.805 152.394C224.112 152.394 224.277 152.233 224.277 151.935C224.277 151.637 224.441 151.476 224.748 151.476C225.054 151.476 225.219 151.315 225.219 151.017C225.219 150.718 225.384 150.558 225.69 150.558C226.138 150.558 226.161 150.718 226.161 154.689C226.161 158.659 226.185 158.82 226.632 158.82C226.939 158.82 227.104 158.981 227.104 159.279C227.104 159.738 227.268 159.738 241.71 159.738H256.316V105.574V51.4103H232.286C208.422 51.4103 208.257 51.4103 208.257 50.9513C208.257 50.5611 208.092 50.4922 207.314 50.4922C206.537 50.4922 206.372 50.4234 206.372 50.0332C206.372 49.7349 206.207 49.5742 205.901 49.5742C205.595 49.5742 205.43 49.4136 205.43 49.1152C205.43 48.8168 205.265 48.6562 204.959 48.6562C204.652 48.6562 204.487 48.4955 204.487 48.1972C204.487 47.8988 204.322 47.7381 204.016 47.7381C203.71 47.7381 203.545 47.5775 203.545 47.2791C203.545 46.9808 203.38 46.8201 203.074 46.8201C202.673 46.8201 202.603 46.6595 202.603 45.9021C202.603 45.1447 202.532 44.984 202.132 44.984C201.707 44.984 201.66 44.8234 201.66 43.607C201.66 42.3906 201.613 42.23 201.189 42.23C200.742 42.23 200.718 42.0693 200.718 39.9349C200.718 37.8004 200.742 37.6398 201.189 37.6398C201.613 37.6398 201.66 37.4791 201.66 36.2627C201.66 35.0463 201.707 34.8857 202.132 34.8857C202.438 34.8857 202.603 34.725 202.603 34.4267C202.603 34.1283 202.768 33.9677 203.074 33.9677C203.474 33.9677 203.545 33.807 203.545 33.0496C203.545 32.2922 203.616 32.1316 204.016 32.1316C204.322 32.1316 204.487 31.9709 204.487 31.6726C204.487 31.3742 204.652 31.2136 204.959 31.2136C205.265 31.2136 205.43 31.0529 205.43 30.7545C205.43 30.3644 205.595 30.2955 206.372 30.2955C207.149 30.2955 207.314 30.2267 207.314 29.8365C207.314 29.4463 207.479 29.3775 208.257 29.3775C209.034 29.3775 209.199 29.3086 209.199 28.9185C209.199 28.4595 209.364 28.4595 221.921 28.4595H234.642V14.23V0.000441551H220.507C206.537 0.000441551 206.372 0.000441551 206.372 0.459458ZM227.104 96.3939C227.104 112.758 227.104 112.918 226.632 112.918C226.208 112.918 226.161 113.079 226.161 114.296C226.161 115.512 226.114 115.673 225.69 115.673C225.266 115.673 225.219 115.833 225.219 117.05C225.219 118.266 225.172 118.427 224.748 118.427C224.347 118.427 224.277 118.587 224.277 119.345C224.277 120.102 224.206 120.263 223.805 120.263C223.405 120.263 223.334 120.423 223.334 121.181C223.334 121.938 223.263 122.099 222.863 122.099C222.557 122.099 222.392 122.259 222.392 122.558C222.392 122.856 222.227 123.017 221.921 123.017C221.614 123.017 221.449 123.177 221.449 123.476C221.449 123.774 221.285 123.935 220.978 123.935C220.578 123.935 220.507 124.096 220.507 124.853C220.507 125.61 220.436 125.771 220.036 125.771C219.73 125.771 219.565 125.932 219.565 126.23C219.565 126.528 219.4 126.689 219.094 126.689C218.787 126.689 218.622 126.85 218.622 127.148C218.622 127.538 218.458 127.607 217.68 127.607C216.903 127.607 216.738 127.676 216.738 128.066C216.738 128.364 216.573 128.525 216.267 128.525C215.96 128.525 215.795 128.686 215.795 128.984C215.795 129.282 215.631 129.443 215.324 129.443C215.018 129.443 214.853 129.604 214.853 129.902C214.853 130.292 214.688 130.361 213.911 130.361C213.133 130.361 212.968 130.43 212.968 130.82C212.968 131.21 212.804 131.279 212.026 131.279C211.249 131.279 211.084 131.348 211.084 131.738C211.084 132.128 210.919 132.197 210.141 132.197C209.364 132.197 209.199 132.266 209.199 132.656C209.199 133.069 209.034 133.115 207.314 133.115C205.595 133.115 205.43 133.161 205.43 133.574C205.43 134.01 205.265 134.033 199.305 134.033C193.344 134.033 193.179 134.01 193.179 133.574C193.179 133.161 193.014 133.115 191.766 133.115C190.517 133.115 190.352 133.069 190.352 132.656C190.352 132.243 190.187 132.197 188.939 132.197C187.69 132.197 187.525 132.151 187.525 131.738C187.525 131.348 187.36 131.279 186.583 131.279C185.805 131.279 185.641 131.21 185.641 130.82C185.641 130.522 185.476 130.361 185.169 130.361C184.863 130.361 184.698 130.2 184.698 129.902C184.698 129.512 184.533 129.443 183.756 129.443C182.978 129.443 182.814 129.374 182.814 128.984C182.814 128.686 182.649 128.525 182.342 128.525C182.036 128.525 181.871 128.364 181.871 128.066C181.871 127.768 181.706 127.607 181.4 127.607C181.094 127.607 180.929 127.446 180.929 127.148C180.929 126.85 180.764 126.689 180.458 126.689C180.151 126.689 179.987 126.528 179.987 126.23C179.987 125.932 179.822 125.771 179.515 125.771C179.209 125.771 179.044 125.61 179.044 125.312C179.044 125.014 178.879 124.853 178.573 124.853C178.267 124.853 178.102 124.692 178.102 124.394C178.102 124.096 177.937 123.935 177.631 123.935C177.23 123.935 177.16 123.774 177.16 123.017C177.16 122.259 177.089 122.099 176.688 122.099C176.382 122.099 176.217 121.938 176.217 121.64C176.217 121.341 176.052 121.181 175.746 121.181C175.346 121.181 175.275 121.02 175.275 120.263C175.275 119.505 175.204 119.345 174.804 119.345C174.403 119.345 174.333 119.184 174.333 118.427C174.333 117.669 174.262 117.509 173.861 117.509C173.437 117.509 173.39 117.348 173.39 116.132C173.39 114.915 173.343 114.755 172.919 114.755C172.471 114.755 172.448 114.594 172.448 112.459C172.448 110.325 172.424 110.164 171.977 110.164C171.529 110.164 171.505 110.004 171.505 107.41C171.505 104.817 171.529 104.656 171.977 104.656C172.424 104.656 172.448 104.496 172.448 101.902C172.448 99.3086 172.471 99.148 172.919 99.148C173.319 99.148 173.39 98.9873 173.39 98.23C173.39 97.4726 173.461 97.3119 173.861 97.3119C174.262 97.3119 174.333 97.1513 174.333 96.3939C174.333 95.6365 174.403 95.4759 174.804 95.4759C175.204 95.4759 175.275 95.3152 175.275 94.5578C175.275 93.8004 175.346 93.6398 175.746 93.6398C176.147 93.6398 176.217 93.4791 176.217 92.7218C176.217 91.9644 176.288 91.8037 176.688 91.8037C176.995 91.8037 177.16 91.6431 177.16 91.3447C177.16 91.0463 177.324 90.8857 177.631 90.8857C177.937 90.8857 178.102 90.725 178.102 90.4267C178.102 90.1283 178.267 89.9677 178.573 89.9677C178.879 89.9677 179.044 89.807 179.044 89.5086C179.044 89.2103 179.209 89.0496 179.515 89.0496C179.822 89.0496 179.987 88.889 179.987 88.5906C179.987 88.2922 180.151 88.1316 180.458 88.1316C180.764 88.1316 180.929 87.9709 180.929 87.6726C180.929 87.3742 181.094 87.2136 181.4 87.2136C181.706 87.2136 181.871 87.0529 181.871 86.7545C181.871 86.4562 182.036 86.2955 182.342 86.2955C182.649 86.2955 182.814 86.1349 182.814 85.8365C182.814 85.5382 182.978 85.3775 183.285 85.3775C183.591 85.3775 183.756 85.2168 183.756 84.9185C183.756 84.5283 183.921 84.4595 184.698 84.4595C185.476 84.4595 185.641 84.3906 185.641 84.0004C185.641 83.6103 185.805 83.5414 186.583 83.5414C187.36 83.5414 187.525 83.4726 187.525 83.0824C187.525 82.6922 187.69 82.6234 188.468 82.6234C189.245 82.6234 189.41 82.5545 189.41 82.1644C189.41 81.7513 189.575 81.7054 190.823 81.7054C192.072 81.7054 192.237 81.6595 192.237 81.2463C192.237 80.8103 192.402 80.7873 195.064 80.7873C197.726 80.7873 197.891 80.7644 197.891 80.3283C197.891 79.8693 198.056 79.8693 212.497 79.8693H227.104V96.3939Z" fill="white"/>
<path d="M330.761 0.460616C330.761 0.873731 330.596 0.919632 329.348 0.919632C328.099 0.919632 327.934 0.965534 327.934 1.37865C327.934 1.76881 327.769 1.83767 326.992 1.83767C326.214 1.83767 326.049 1.90652 326.049 2.29668C326.049 2.68685 325.885 2.7557 325.107 2.7557C324.33 2.7557 324.165 2.82455 324.165 3.21471C324.165 3.51308 324 3.67373 323.694 3.67373C323.387 3.67373 323.222 3.83439 323.222 4.13275C323.222 4.43111 323.057 4.59176 322.751 4.59176C322.445 4.59176 322.28 4.75242 322.28 5.05078C322.28 5.34914 322.115 5.5098 321.809 5.5098C321.408 5.5098 321.338 5.67045 321.338 6.42783C321.338 7.18521 321.267 7.34586 320.867 7.34586C320.56 7.34586 320.395 7.50652 320.395 7.80488C320.395 8.10324 320.23 8.26389 319.924 8.26389C319.524 8.26389 319.453 8.42455 319.453 9.18193C319.453 9.9393 319.382 10.1 318.982 10.1C318.558 10.1 318.511 10.2606 318.511 11.936C318.511 13.6114 318.464 13.7721 318.04 13.7721C317.592 13.7721 317.568 13.9327 317.568 16.5262C317.568 19.1196 317.592 19.2803 318.04 19.2803C318.464 19.2803 318.511 19.4409 318.511 21.1164C318.511 22.7918 318.558 22.9524 318.982 22.9524C319.382 22.9524 319.453 23.1131 319.453 23.8705C319.453 24.6278 319.524 24.7885 319.924 24.7885C320.325 24.7885 320.395 24.9491 320.395 25.7065C320.395 26.4639 320.466 26.6246 320.867 26.6246C321.173 26.6246 321.338 26.7852 321.338 27.0836C321.338 27.3819 321.503 27.5426 321.809 27.5426C322.115 27.5426 322.28 27.7032 322.28 28.0016C322.28 28.3 322.445 28.4606 322.751 28.4606C323.057 28.4606 323.222 28.6213 323.222 28.9196C323.222 29.218 323.387 29.3786 323.694 29.3786C324 29.3786 324.165 29.5393 324.165 29.8377C324.165 30.2278 324.33 30.2967 325.107 30.2967C325.885 30.2967 326.049 30.3655 326.049 30.7557C326.049 31.1459 326.214 31.2147 326.992 31.2147C327.769 31.2147 327.934 31.2836 327.934 31.6737C327.934 32.0639 328.099 32.1327 328.876 32.1327C329.654 32.1327 329.819 32.2016 329.819 32.5918C329.819 33.0278 329.984 33.0508 334.53 33.0508C339.077 33.0508 339.242 33.0278 339.242 32.5918C339.242 32.1787 339.407 32.1327 340.656 32.1327C341.904 32.1327 342.069 32.0868 342.069 31.6737C342.069 31.2836 342.234 31.2147 343.012 31.2147C343.789 31.2147 343.954 31.1459 343.954 30.7557C343.954 30.4573 344.119 30.2967 344.425 30.2967C344.731 30.2967 344.896 30.136 344.896 29.8377C344.896 29.5393 345.061 29.3786 345.367 29.3786C345.674 29.3786 345.839 29.218 345.839 28.9196C345.839 28.6213 346.003 28.4606 346.31 28.4606C346.616 28.4606 346.781 28.3 346.781 28.0016C346.781 27.7032 346.946 27.5426 347.252 27.5426C347.558 27.5426 347.723 27.3819 347.723 27.0836C347.723 26.7852 347.888 26.6246 348.194 26.6246C348.501 26.6246 348.666 26.4639 348.666 26.1655C348.666 25.8672 348.83 25.7065 349.137 25.7065C349.561 25.7065 349.608 25.5459 349.608 24.3295C349.608 23.1131 349.655 22.9524 350.079 22.9524C350.503 22.9524 350.55 22.7918 350.55 21.5754C350.55 20.359 350.597 20.1983 351.021 20.1983C351.469 20.1983 351.493 20.0377 351.493 16.5262C351.493 13.0147 351.469 12.8541 351.021 12.8541C350.597 12.8541 350.55 12.6934 350.55 11.477C350.55 10.2606 350.503 10.1 350.079 10.1C349.679 10.1 349.608 9.9393 349.608 9.18193C349.608 8.42455 349.537 8.26389 349.137 8.26389C348.736 8.26389 348.666 8.10324 348.666 7.34586C348.666 6.58849 348.595 6.42783 348.194 6.42783C347.888 6.42783 347.723 6.26717 347.723 5.96881C347.723 5.67045 347.558 5.5098 347.252 5.5098C346.946 5.5098 346.781 5.34914 346.781 5.05078C346.781 4.75242 346.616 4.59176 346.31 4.59176C346.003 4.59176 345.839 4.43111 345.839 4.13275C345.839 3.83439 345.674 3.67373 345.367 3.67373C345.061 3.67373 344.896 3.51308 344.896 3.21471C344.896 2.82455 344.731 2.7557 343.954 2.7557C343.176 2.7557 343.012 2.68685 343.012 2.29668C343.012 1.99832 342.847 1.83767 342.54 1.83767C342.234 1.83767 342.069 1.67701 342.069 1.37865C342.069 0.965534 341.904 0.919632 340.656 0.919632C339.407 0.919632 339.242 0.873731 339.242 0.460616C339.242 0.0245504 339.077 0.00159955 335.002 0.00159955C330.926 0.00159955 330.761 0.0245504 330.761 0.460616Z" fill="white"/>
<path d="M457.976 51.8693C457.976 52.3054 457.811 52.3283 454.207 52.3283C450.602 52.3283 450.437 52.3513 450.437 52.7873C450.437 53.2234 450.272 53.2463 448.082 53.2463C445.891 53.2463 445.726 53.2693 445.726 53.7054C445.726 54.1185 445.561 54.1644 444.312 54.1644C443.064 54.1644 442.899 54.2103 442.899 54.6234C442.899 55.0365 442.734 55.0824 441.485 55.0824C440.237 55.0824 440.072 55.1283 440.072 55.5414C440.072 55.9545 439.907 56.0004 438.658 56.0004C437.41 56.0004 437.245 56.0463 437.245 56.4595C437.245 56.8496 437.08 56.9185 436.302 56.9185C435.525 56.9185 435.36 56.9873 435.36 57.3775C435.36 57.7677 435.195 57.8365 434.418 57.8365C433.64 57.8365 433.475 57.9054 433.475 58.2955C433.475 58.6857 433.31 58.7545 432.533 58.7545C431.755 58.7545 431.591 58.8234 431.591 59.2136C431.591 59.5119 431.426 59.6726 431.119 59.6726C430.813 59.6726 430.648 59.8332 430.648 60.1316C430.648 60.5218 430.483 60.5906 429.706 60.5906C428.928 60.5906 428.764 60.6595 428.764 61.0496C428.764 61.348 428.599 61.5086 428.292 61.5086C427.986 61.5086 427.821 61.6693 427.821 61.9677C427.821 62.3578 427.656 62.4267 426.879 62.4267C426.101 62.4267 425.937 62.4955 425.937 62.8857C425.937 63.1841 425.772 63.3447 425.465 63.3447C425.159 63.3447 424.994 63.5054 424.994 63.8037C424.994 64.1021 424.829 64.2627 424.523 64.2627C424.217 64.2627 424.052 64.4234 424.052 64.7218C424.052 65.0201 423.887 65.1808 423.581 65.1808C423.274 65.1808 423.11 65.3414 423.11 65.6398C423.11 65.9381 422.945 66.0988 422.638 66.0988C422.332 66.0988 422.167 66.2595 422.167 66.5578C422.167 66.8562 422.002 67.0168 421.696 67.0168C421.39 67.0168 421.225 67.1775 421.225 67.4759C421.225 67.7742 421.06 67.9349 420.754 67.9349C420.447 67.9349 420.283 68.0955 420.283 68.3939C420.283 68.6922 420.118 68.8529 419.811 68.8529C419.505 68.8529 419.34 69.0136 419.34 69.3119C419.34 69.6103 419.175 69.7709 418.869 69.7709C418.563 69.7709 418.398 69.9316 418.398 70.23C418.398 70.5283 418.233 70.689 417.927 70.689C417.62 70.689 417.455 70.8496 417.455 71.148C417.455 71.4463 417.291 71.607 416.984 71.607C416.584 71.607 416.513 71.7677 416.513 72.525C416.513 73.2824 416.442 73.4431 416.042 73.4431C415.736 73.4431 415.571 73.6037 415.571 73.9021C415.571 74.2004 415.406 74.3611 415.1 74.3611C414.699 74.3611 414.628 74.5218 414.628 75.2791C414.628 76.0365 414.558 76.1972 414.157 76.1972C413.851 76.1972 413.686 76.3578 413.686 76.6562C413.686 76.9545 413.521 77.1152 413.215 77.1152C412.814 77.1152 412.744 77.2759 412.744 78.0332C412.744 78.7906 412.673 78.9513 412.273 78.9513C411.872 78.9513 411.801 79.1119 411.801 79.8693C411.801 80.6267 411.731 80.7873 411.33 80.7873C410.93 80.7873 410.859 80.948 410.859 81.7054C410.859 82.4627 410.788 82.6234 410.388 82.6234C409.987 82.6234 409.917 82.7841 409.917 83.5414C409.917 84.2988 409.846 84.4595 409.446 84.4595C409.022 84.4595 408.974 84.6201 408.974 85.8365C408.974 87.0529 408.927 87.2136 408.503 87.2136C408.079 87.2136 408.032 87.3742 408.032 88.5906C408.032 89.807 407.985 89.9677 407.561 89.9677C407.137 89.9677 407.09 90.1283 407.09 91.8037C407.09 93.4791 407.043 93.6398 406.619 93.6398C406.171 93.6398 406.147 93.8004 406.147 95.9349C406.147 98.0693 406.124 98.23 405.676 98.23C405.205 98.23 405.205 98.3906 405.205 106.951C405.205 115.512 405.205 115.673 405.676 115.673C406.124 115.673 406.147 115.833 406.147 118.427C406.147 121.02 406.171 121.181 406.619 121.181C407.043 121.181 407.09 121.341 407.09 123.017C407.09 124.692 407.137 124.853 407.561 124.853C407.985 124.853 408.032 125.014 408.032 126.23C408.032 127.446 408.079 127.607 408.503 127.607C408.904 127.607 408.974 127.768 408.974 128.525C408.974 129.282 409.045 129.443 409.446 129.443C409.87 129.443 409.917 129.604 409.917 130.82C409.917 132.037 409.964 132.197 410.388 132.197C410.788 132.197 410.859 132.358 410.859 133.115C410.859 133.873 410.93 134.033 411.33 134.033C411.731 134.033 411.801 134.194 411.801 134.951C411.801 135.709 411.872 135.869 412.273 135.869C412.673 135.869 412.744 136.03 412.744 136.787C412.744 137.545 412.814 137.705 413.215 137.705C413.521 137.705 413.686 137.866 413.686 138.164C413.686 138.463 413.851 138.623 414.157 138.623C414.558 138.623 414.628 138.784 414.628 139.541C414.628 140.299 414.699 140.459 415.1 140.459C415.406 140.459 415.571 140.62 415.571 140.918C415.571 141.217 415.736 141.377 416.042 141.377C416.348 141.377 416.513 141.538 416.513 141.837C416.513 142.135 416.678 142.296 416.984 142.296C417.385 142.296 417.455 142.456 417.455 143.214C417.455 143.971 417.526 144.132 417.927 144.132C418.233 144.132 418.398 144.292 418.398 144.591C418.398 144.889 418.563 145.05 418.869 145.05C419.175 145.05 419.34 145.21 419.34 145.509C419.34 145.807 419.505 145.968 419.811 145.968C420.118 145.968 420.283 146.128 420.283 146.427C420.283 146.725 420.447 146.886 420.754 146.886C421.06 146.886 421.225 147.046 421.225 147.345C421.225 147.643 421.39 147.804 421.696 147.804C422.002 147.804 422.167 147.964 422.167 148.263C422.167 148.561 422.332 148.722 422.638 148.722C422.945 148.722 423.11 148.882 423.11 149.181C423.11 149.479 423.274 149.64 423.581 149.64C423.887 149.64 424.052 149.8 424.052 150.099C424.052 150.397 424.217 150.558 424.523 150.558C424.829 150.558 424.994 150.718 424.994 151.017C424.994 151.407 425.159 151.476 425.937 151.476C426.714 151.476 426.879 151.545 426.879 151.935C426.879 152.233 427.044 152.394 427.35 152.394C427.656 152.394 427.821 152.555 427.821 152.853C427.821 153.243 427.986 153.312 428.764 153.312C429.541 153.312 429.706 153.381 429.706 153.771C429.706 154.069 429.871 154.23 430.177 154.23C430.483 154.23 430.648 154.391 430.648 154.689C430.648 155.079 430.813 155.148 431.591 155.148C432.368 155.148 432.533 155.217 432.533 155.607C432.533 155.997 432.698 156.066 433.475 156.066C434.253 156.066 434.418 156.135 434.418 156.525C434.418 156.915 434.583 156.984 435.36 156.984C436.137 156.984 436.302 157.053 436.302 157.443C436.302 157.856 436.467 157.902 437.716 157.902C438.964 157.902 439.129 157.948 439.129 158.361C439.129 158.774 439.294 158.82 440.543 158.82C441.791 158.82 441.956 158.866 441.956 159.279C441.956 159.692 442.121 159.738 443.37 159.738C444.618 159.738 444.783 159.784 444.783 160.197C444.783 160.633 444.948 160.656 447.61 160.656C450.272 160.656 450.437 160.679 450.437 161.115C450.437 161.574 450.602 161.574 457.505 161.574C464.408 161.574 464.572 161.574 464.572 161.115C464.572 160.679 464.737 160.656 466.928 160.656C469.119 160.656 469.284 160.633 469.284 160.197C469.284 159.784 469.449 159.738 471.169 159.738C472.889 159.738 473.054 159.692 473.054 159.279C473.054 158.866 473.218 158.82 474.467 158.82C475.716 158.82 475.881 158.774 475.881 158.361C475.881 157.971 476.045 157.902 476.823 157.902C477.6 157.902 477.765 157.833 477.765 157.443C477.765 157.053 477.93 156.984 478.708 156.984C479.485 156.984 479.65 156.915 479.65 156.525C479.65 156.135 479.815 156.066 480.592 156.066C481.37 156.066 481.535 155.997 481.535 155.607C481.535 155.309 481.699 155.148 482.006 155.148C482.312 155.148 482.477 154.987 482.477 154.689C482.477 154.299 482.642 154.23 483.419 154.23C484.197 154.23 484.362 154.161 484.362 153.771C484.362 153.473 484.527 153.312 484.833 153.312C485.139 153.312 485.304 153.151 485.304 152.853C485.304 152.555 485.469 152.394 485.775 152.394C486.081 152.394 486.246 152.233 486.246 151.935C486.246 151.545 486.411 151.476 487.189 151.476C487.966 151.476 488.131 151.407 488.131 151.017C488.131 150.718 488.296 150.558 488.602 150.558C489.05 150.558 489.073 150.718 489.073 155.148V159.738H503.68C518.121 159.738 518.286 159.738 518.286 159.279C518.286 158.981 518.451 158.82 518.757 158.82C519.228 158.82 519.228 158.659 519.228 130.82C519.228 102.981 519.228 102.82 518.757 102.82C518.309 102.82 518.286 102.659 518.286 99.607C518.286 96.5545 518.262 96.3939 517.815 96.3939C517.391 96.3939 517.343 96.2332 517.343 94.5578C517.343 92.8824 517.296 92.7218 516.872 92.7218C516.448 92.7218 516.401 92.5611 516.401 90.8857C516.401 89.2103 516.354 89.0496 515.93 89.0496C515.529 89.0496 515.459 88.889 515.459 88.1316C515.459 87.3742 515.388 87.2136 514.988 87.2136C514.564 87.2136 514.516 87.0529 514.516 85.8365C514.516 84.6201 514.469 84.4595 514.045 84.4595C513.645 84.4595 513.574 84.2988 513.574 83.5414C513.574 82.7841 513.503 82.6234 513.103 82.6234C512.702 82.6234 512.632 82.4627 512.632 81.7054C512.632 80.948 512.561 80.7873 512.161 80.7873C511.76 80.7873 511.689 80.6267 511.689 79.8693C511.689 79.1119 511.619 78.9513 511.218 78.9513C510.912 78.9513 510.747 78.7906 510.747 78.4922C510.747 78.1939 510.582 78.0332 510.276 78.0332C509.875 78.0332 509.805 77.8726 509.805 77.1152C509.805 76.3578 509.734 76.1972 509.334 76.1972C509.027 76.1972 508.862 76.0365 508.862 75.7381C508.862 75.4398 508.698 75.2791 508.391 75.2791C507.991 75.2791 507.92 75.1185 507.92 74.3611C507.92 73.6037 507.849 73.4431 507.449 73.4431C507.143 73.4431 506.978 73.2824 506.978 72.9841C506.978 72.6857 506.813 72.525 506.507 72.525C506.2 72.525 506.035 72.3644 506.035 72.066C506.035 71.7677 505.87 71.607 505.564 71.607C505.258 71.607 505.093 71.4463 505.093 71.148C505.093 70.8496 504.928 70.689 504.622 70.689C504.316 70.689 504.151 70.5283 504.151 70.23C504.151 69.9316 503.986 69.7709 503.68 69.7709C503.373 69.7709 503.208 69.6103 503.208 69.3119C503.208 69.0136 503.043 68.8529 502.737 68.8529C502.431 68.8529 502.266 68.6922 502.266 68.3939C502.266 68.0955 502.101 67.9349 501.795 67.9349C501.489 67.9349 501.324 67.7742 501.324 67.4759C501.324 67.1775 501.159 67.0168 500.853 67.0168C500.546 67.0168 500.381 66.8562 500.381 66.5578C500.381 66.2595 500.216 66.0988 499.91 66.0988C499.604 66.0988 499.439 65.9381 499.439 65.6398C499.439 65.3414 499.274 65.1808 498.968 65.1808C498.662 65.1808 498.497 65.0201 498.497 64.7218C498.497 64.4234 498.332 64.2627 498.026 64.2627C497.719 64.2627 497.554 64.1021 497.554 63.8037C497.554 63.4136 497.389 63.3447 496.612 63.3447C495.835 63.3447 495.67 63.2759 495.67 62.8857C495.67 62.5873 495.505 62.4267 495.198 62.4267C494.892 62.4267 494.727 62.266 494.727 61.9677C494.727 61.6693 494.562 61.5086 494.256 61.5086C493.95 61.5086 493.785 61.348 493.785 61.0496C493.785 60.6595 493.62 60.5906 492.843 60.5906C492.065 60.5906 491.9 60.5218 491.9 60.1316C491.9 59.7414 491.735 59.6726 490.958 59.6726C490.181 59.6726 490.016 59.6037 490.016 59.2136C490.016 58.9152 489.851 58.7545 489.544 58.7545C489.238 58.7545 489.073 58.5939 489.073 58.2955C489.073 57.9054 488.908 57.8365 488.131 57.8365C487.354 57.8365 487.189 57.7677 487.189 57.3775C487.189 56.9873 487.024 56.9185 486.246 56.9185C485.469 56.9185 485.304 56.8496 485.304 56.4595C485.304 56.0463 485.139 56.0004 483.89 56.0004C482.642 56.0004 482.477 55.9545 482.477 55.5414C482.477 55.1283 482.312 55.0824 481.063 55.0824C479.815 55.0824 479.65 55.0365 479.65 54.6234C479.65 54.2103 479.485 54.1644 478.236 54.1644C476.988 54.1644 476.823 54.1185 476.823 53.7054C476.823 53.2922 476.658 53.2463 474.938 53.2463C473.218 53.2463 473.054 53.2004 473.054 52.7873C473.054 52.3513 472.889 52.3283 469.755 52.3283C466.622 52.3283 466.457 52.3054 466.457 51.8693C466.457 51.4332 466.292 51.4103 462.217 51.4103C458.141 51.4103 457.976 51.4332 457.976 51.8693ZM463.63 80.3283C463.63 80.7644 463.795 80.7873 466.457 80.7873C469.119 80.7873 469.284 80.8103 469.284 81.2463C469.284 81.6595 469.449 81.7054 470.698 81.7054C471.946 81.7054 472.111 81.7513 472.111 82.1644C472.111 82.5545 472.276 82.6234 473.054 82.6234C473.831 82.6234 473.996 82.6922 473.996 83.0824C473.996 83.4726 474.161 83.5414 474.938 83.5414C475.716 83.5414 475.881 83.6103 475.881 84.0004C475.881 84.3906 476.045 84.4595 476.823 84.4595C477.6 84.4595 477.765 84.5283 477.765 84.9185C477.765 85.2168 477.93 85.3775 478.236 85.3775C478.543 85.3775 478.708 85.5382 478.708 85.8365C478.708 86.1349 478.872 86.2955 479.179 86.2955C479.485 86.2955 479.65 86.4562 479.65 86.7545C479.65 87.0529 479.815 87.2136 480.121 87.2136C480.427 87.2136 480.592 87.3742 480.592 87.6726C480.592 87.9709 480.757 88.1316 481.063 88.1316C481.37 88.1316 481.535 88.2922 481.535 88.5906C481.535 88.889 481.699 89.0496 482.006 89.0496C482.312 89.0496 482.477 89.2103 482.477 89.5086C482.477 89.807 482.642 89.9677 482.948 89.9677C483.254 89.9677 483.419 90.1283 483.419 90.4267C483.419 90.725 483.584 90.8857 483.89 90.8857C484.197 90.8857 484.362 91.0463 484.362 91.3447C484.362 91.6431 484.527 91.8037 484.833 91.8037C485.233 91.8037 485.304 91.9644 485.304 92.7218C485.304 93.4791 485.375 93.6398 485.775 93.6398C486.176 93.6398 486.246 93.8004 486.246 94.5578C486.246 95.3152 486.317 95.4759 486.717 95.4759C487.118 95.4759 487.189 95.6365 487.189 96.3939C487.189 97.1513 487.259 97.3119 487.66 97.3119C488.084 97.3119 488.131 97.4726 488.131 98.689C488.131 99.9054 488.178 100.066 488.602 100.066C489.05 100.066 489.073 100.227 489.073 102.361C489.073 104.496 489.097 104.656 489.544 104.656C489.992 104.656 490.016 104.817 490.016 107.41C490.016 110.004 489.992 110.164 489.544 110.164C489.097 110.164 489.073 110.325 489.073 112.459C489.073 114.594 489.05 114.755 488.602 114.755C488.178 114.755 488.131 114.915 488.131 116.132C488.131 117.348 488.084 117.509 487.66 117.509C487.259 117.509 487.189 117.669 487.189 118.427C487.189 119.184 487.118 119.345 486.717 119.345C486.317 119.345 486.246 119.505 486.246 120.263C486.246 121.02 486.176 121.181 485.775 121.181C485.375 121.181 485.304 121.341 485.304 122.099C485.304 122.856 485.233 123.017 484.833 123.017C484.527 123.017 484.362 123.177 484.362 123.476C484.362 123.774 484.197 123.935 483.89 123.935C483.584 123.935 483.419 124.096 483.419 124.394C483.419 124.692 483.254 124.853 482.948 124.853C482.642 124.853 482.477 125.014 482.477 125.312C482.477 125.61 482.312 125.771 482.006 125.771C481.699 125.771 481.535 125.932 481.535 126.23C481.535 126.528 481.37 126.689 481.063 126.689C480.757 126.689 480.592 126.85 480.592 127.148C480.592 127.446 480.427 127.607 480.121 127.607C479.815 127.607 479.65 127.768 479.65 128.066C479.65 128.364 479.485 128.525 479.179 128.525C478.872 128.525 478.708 128.686 478.708 128.984C478.708 129.374 478.543 129.443 477.765 129.443C476.988 129.443 476.823 129.512 476.823 129.902C476.823 130.2 476.658 130.361 476.352 130.361C476.045 130.361 475.881 130.522 475.881 130.82C475.881 131.21 475.716 131.279 474.938 131.279C474.161 131.279 473.996 131.348 473.996 131.738C473.996 132.151 473.831 132.197 472.582 132.197C471.334 132.197 471.169 132.243 471.169 132.656C471.169 133.069 471.004 133.115 469.755 133.115C468.507 133.115 468.342 133.161 468.342 133.574C468.342 134.01 468.177 134.033 462.217 134.033C456.256 134.033 456.091 134.01 456.091 133.574C456.091 133.161 455.926 133.115 454.207 133.115C452.487 133.115 452.322 133.069 452.322 132.656C452.322 132.266 452.157 132.197 451.38 132.197C450.602 132.197 450.437 132.128 450.437 131.738C450.437 131.348 450.272 131.279 449.495 131.279C448.718 131.279 448.553 131.21 448.553 130.82C448.553 130.43 448.388 130.361 447.61 130.361C446.833 130.361 446.668 130.292 446.668 129.902C446.668 129.604 446.503 129.443 446.197 129.443C445.891 129.443 445.726 129.282 445.726 128.984C445.726 128.594 445.561 128.525 444.783 128.525C444.006 128.525 443.841 128.456 443.841 128.066C443.841 127.768 443.676 127.607 443.37 127.607C443.064 127.607 442.899 127.446 442.899 127.148C442.899 126.85 442.734 126.689 442.427 126.689C442.121 126.689 441.956 126.528 441.956 126.23C441.956 125.932 441.791 125.771 441.485 125.771C441.085 125.771 441.014 125.61 441.014 124.853C441.014 124.096 440.943 123.935 440.543 123.935C440.237 123.935 440.072 123.774 440.072 123.476C440.072 123.177 439.907 123.017 439.6 123.017C439.294 123.017 439.129 122.856 439.129 122.558C439.129 122.259 438.964 122.099 438.658 122.099C438.258 122.099 438.187 121.938 438.187 121.181C438.187 120.423 438.116 120.263 437.716 120.263C437.315 120.263 437.245 120.102 437.245 119.345C437.245 118.587 437.174 118.427 436.773 118.427C436.349 118.427 436.302 118.266 436.302 117.05C436.302 115.833 436.255 115.673 435.831 115.673C435.407 115.673 435.36 115.512 435.36 114.296C435.36 113.079 435.313 112.918 434.889 112.918C434.441 112.918 434.418 112.758 434.418 107.41C434.418 102.063 434.441 101.902 434.889 101.902C435.313 101.902 435.36 101.741 435.36 100.066C435.36 98.3906 435.407 98.23 435.831 98.23C436.232 98.23 436.302 98.0693 436.302 97.3119C436.302 96.5545 436.373 96.3939 436.773 96.3939C437.174 96.3939 437.245 96.2332 437.245 95.4759C437.245 94.7185 437.315 94.5578 437.716 94.5578C438.116 94.5578 438.187 94.3972 438.187 93.6398C438.187 92.8824 438.258 92.7218 438.658 92.7218C438.964 92.7218 439.129 92.5611 439.129 92.2627C439.129 91.9644 439.294 91.8037 439.6 91.8037C440.001 91.8037 440.072 91.6431 440.072 90.8857C440.072 90.1283 440.142 89.9677 440.543 89.9677C440.849 89.9677 441.014 89.807 441.014 89.5086C441.014 89.2103 441.179 89.0496 441.485 89.0496C441.791 89.0496 441.956 88.889 441.956 88.5906C441.956 88.2922 442.121 88.1316 442.427 88.1316C442.734 88.1316 442.899 87.9709 442.899 87.6726C442.899 87.3742 443.064 87.2136 443.37 87.2136C443.676 87.2136 443.841 87.0529 443.841 86.7545C443.841 86.4562 444.006 86.2955 444.312 86.2955C444.618 86.2955 444.783 86.1349 444.783 85.8365C444.783 85.4463 444.948 85.3775 445.726 85.3775C446.503 85.3775 446.668 85.3086 446.668 84.9185C446.668 84.6201 446.833 84.4595 447.139 84.4595C447.445 84.4595 447.61 84.2988 447.61 84.0004C447.61 83.6103 447.775 83.5414 448.553 83.5414C449.33 83.5414 449.495 83.4726 449.495 83.0824C449.495 82.6922 449.66 82.6234 450.437 82.6234C451.215 82.6234 451.38 82.5545 451.38 82.1644C451.38 81.7513 451.545 81.7054 452.793 81.7054C454.042 81.7054 454.207 81.6595 454.207 81.2463C454.207 80.8103 454.372 80.7873 457.034 80.7873C459.696 80.7873 459.861 80.7644 459.861 80.3283C459.861 79.9152 460.026 79.8693 461.745 79.8693C463.465 79.8693 463.63 79.9152 463.63 80.3283Z" fill="white"/>
<path d="M319.453 106.492V159.738H334.531H349.608V106.492V53.2465H334.531H319.453V106.492Z" fill="white"/>
</svg>
